<svg width="138" height="37" viewBox="0 0 138 37" fill="none" xmlns="http://www.w3.org/2000/svg">
<path d="M5.696 7.84V9.12H16.16C16.608 9.12 16.864 8.88 16.864 8.48C16.864 8.08 16.608 7.84 16.16 7.84H5.696ZM16.16 3.68H5.696V4.96H16.16C16.608 4.96 16.864 4.72 16.864 4.32C16.864 3.92 16.608 3.68 16.16 3.68ZM17.92 12H0.64V0.799999H17.92C20.272 0.799999 21.92 1.92 21.92 4C21.92 5.088 21.408 5.904 20.528 6.4C21.408 6.896 21.92 7.712 21.92 8.8C21.92 10.88 20.272 12 17.92 12ZM23.5463 12V0.799999H44.3463V3.68H28.6023V4.96H44.3463V7.84H28.6023V9.12H44.3463V12H23.5463ZM57.4038 4.32L55.0678 7.2H59.7398L57.4038 4.32ZM54.5558 0.799999H60.2518L69.3238 12H63.6278L62.3318 10.4H52.4758L51.1798 12H45.4838L54.5558 0.799999ZM89.8263 0.799999V6.4C89.8263 9.488 87.3143 12.16 84.2263 12.16H74.1463C71.0583 12.16 68.5463 9.488 68.5463 6.4V0.799999H73.6023V6.4C73.6023 7.28 74.3223 8 75.2023 8H83.1703C84.0503 8 84.7703 7.28 84.7703 6.4V0.799999H89.8263ZM99.7048 12V4.64H91.6088V0.799999H112.889V4.64H104.761V12H99.7048ZM123.423 12V8.16L114.031 0.799999H120.703L125.951 4.928L131.199 0.799999H137.871L128.479 8.16V12H123.423ZM21.44 31.84V36H6.24C3.152 36 0.64 33.488 0.64 30.4C0.64 27.312 3.152 24.8 6.24 24.8H21.44V28.96H7.28C6.4 28.96 5.68 29.52 5.68 30.4C5.68 31.28 6.4 31.84 7.28 31.84H21.44ZM23.2181 36V24.8H28.2741V32.16H42.4181V36H23.2181ZM65.17 24.8V30.4C65.17 33.488 62.658 36.16 59.57 36.16H49.49C46.402 36.16 43.89 33.488 43.89 30.4V24.8H48.946V30.4C48.946 31.28 49.666 32 50.546 32H58.514C59.394 32 60.114 31.28 60.114 30.4V24.8H65.17ZM72.0085 31.84V33.12H82.4725C82.9205 33.12 83.1765 32.88 83.1765 32.48C83.1765 32.08 82.9205 31.84 82.4725 31.84H72.0085ZM82.4725 27.68H72.0085V28.96H82.4725C82.9205 28.96 83.1765 28.72 83.1765 28.32C83.1765 27.92 82.9205 27.68 82.4725 27.68ZM84.2325 36H66.9525V24.8H84.2325C86.5845 24.8 88.2325 25.92 88.2325 28C88.2325 29.088 87.7205 29.904 86.8405 30.4C87.7205 30.896 88.2325 31.712 88.2325 32.8C88.2325 34.88 86.5845 36 84.2325 36Z" fill="#333333"/>
</svg>
